<?xml version="1.0" encoding="UTF-8"?>
<svg id="Ebene_2" data-name="Ebene 2" xmlns="http://www.w3.org/2000/svg" viewBox="0 0 220.9 57.63">
  <defs>
    <style>
      .cls-1 {
        fill: #0000ff;
      }
    </style>
  </defs>
  <g id="Ebene_1-2" data-name="Ebene 1">
    <path class="cls-1" d="M41.82,46.43c0,6.37,4.83,11.2,11.15,11.2h11.84v-22.35h-11.84c-6.33,0-11.15,4.83-11.15,11.15ZM59.78,43.42v6.07c-1.07,2.2-3.27,3.66-5.99,3.66-3.79,0-6.67-2.88-6.67-6.72s2.88-6.67,6.67-6.67c2.71,0,4.91,1.47,5.99,3.66Z"/>
    <polygon class="cls-1" points="70.2 57.63 75.5 57.63 75.5 40.36 85.38 40.36 85.38 57.63 90.67 57.63 90.67 35.28 70.2 35.28 70.2 57.63"/>
    <polygon class="cls-1" points="96.05 57.63 101.36 57.63 101.36 40.36 111.24 40.36 111.24 57.63 116.53 57.63 116.53 35.28 96.05 35.28 96.05 57.63"/>
    <polygon class="cls-1" points="127.22 25.32 121.91 25.32 121.91 57.63 127.22 57.63 127.22 40.36 137.53 40.36 137.53 57.63 142.82 57.63 142.82 35.28 127.22 35.28 127.22 25.32"/>
    <path class="cls-1" d="M158.28,34.75c-6.33,0-11.15,4.83-11.15,11.67,0,6.37,4.83,11.2,11.15,11.2h9.56v-4.52h-9.56c-2.8,0-4.95-1.9-5.64-4.7h16.79v-1.98c0-6.85-4.83-11.67-11.15-11.67ZM152.73,43.88c.78-2.88,2.88-4.6,5.56-4.6s4.78,1.72,5.56,4.6h-11.12Z"/>
    <path class="cls-1" d="M176.51,23.7c-2.24,0-4.17,1.77-4.17,4.09,0,1.29.56,2.58,1.67,3.31h5.03c.99-.73,1.55-2.02,1.55-3.31,0-2.33-1.72-4.09-4.09-4.09h.01Z"/>
    <rect class="cls-1" x="173.88" y="35.28" width="5.29" height="22.35"/>
    <polygon class="cls-1" points="17.12 35.28 1.94 35.28 1.94 57.63 7.23 57.63 7.23 40.36 17.12 40.36 17.12 57.63 17.12 57.63 22.42 57.63 22.42 57.63 22.42 40.36 32.3 40.36 32.3 57.63 37.59 57.63 37.59 35.28 22.42 35.28 17.12 35.28"/>
    <polygon class="cls-1" points="199.74 35.28 184.55 35.28 184.55 57.63 189.85 57.63 189.85 40.36 199.74 40.36 199.74 57.63 199.74 57.63 205.03 57.63 205.03 57.63 205.03 40.36 214.07 40.36 214.07 57.63 219.36 57.63 219.36 35.28 205.03 35.28 199.74 35.28"/>
    <path class="cls-1" d="M23.77,13.62c.81.47,1.72.7,2.74.7.77,0,1.48-.13,2.12-.4s1.2-.64,1.65-1.1c.45-.48.78-1,.97-1.6l-2.42-1.06c-.17.51-.47.91-.87,1.21s-.9.44-1.45.44c-.49,0-.92-.12-1.29-.35-.38-.23-.67-.56-.9-.99-.22-.42-.33-.91-.33-1.45s.1-1.03.33-1.45.51-.76.9-.99.81-.35,1.29-.35c.55,0,1.02.15,1.44.44.42.3.71.7.88,1.21l2.42-1.05c-.2-.63-.52-1.19-.99-1.65-.47-.47-1.01-.83-1.65-1.09-.64-.26-1.35-.4-2.1-.4-1.02,0-1.93.23-2.76.69-.81.47-1.47,1.09-1.93,1.88-.48.8-.71,1.7-.71,2.71s.24,1.91.72,2.72c.48.8,1.12,1.44,1.93,1.91v.02Z"/>
    <path class="cls-1" d="M47.21,8.16c0-.4.08-.73.23-1.02s.37-.51.66-.67c.28-.16.6-.24.97-.24s.7.08.98.24.5.38.65.67c.15.28.23.63.23,1.02v5.93h2.79v-6.53c0-.77-.16-1.44-.49-2.02s-.77-1.02-1.35-1.35-1.24-.49-2.02-.49c-.71,0-1.33.14-1.85.44-.44.24-.76.63-1,1.09v-1.3h-2.6v10.16h2.79v-5.93h.01Z"/>
    <path class="cls-1" d="M153.62,8.16c0-.4.08-.73.23-1.02.15-.29.37-.51.66-.67.28-.16.6-.24.97-.24s.7.08.98.24c.28.16.5.38.65.67.15.28.23.63.23,1.02v5.93h2.79v-6.53c0-.77-.16-1.44-.49-2.02s-.77-1.02-1.35-1.35-1.26-.49-2.02-.49c-.71,0-1.33.14-1.85.44-.34.19-.59.47-.81.78V0h-2.79v14.08h2.79v-5.93h.01Z"/>
    <rect class="cls-1" x="55.74" y="3.93" width="2.79" height="10.16"/>
    <path class="cls-1" d="M196.37,13.79c.58.35,1.28.53,2.09.53.71,0,1.33-.15,1.85-.44.44-.24.76-.63,1-1.09v1.3h2.6V3.93h-2.79v5.93c0,.38-.08.72-.23,1.01-.15.29-.37.52-.65.67-.28.16-.6.24-.98.24s-.69-.08-.97-.24-.5-.38-.66-.67c-.15-.29-.23-.63-.23-1.01V3.93h-2.79v6.16c0,.85.15,1.58.44,2.21s.73,1.13,1.31,1.48h0Z"/>
    <rect class="cls-1" x="206.14" y=".01" width="2.79" height="14.08"/>
    <path class="cls-1" d="M10.22,11.67c.43.8,1.05,1.44,1.84,1.93.79.48,1.73.72,2.81.72.7,0,1.34-.1,1.92-.3.58-.21,1.09-.49,1.51-.86.43-.37.74-.8.94-1.3l-2.23-1.06c-.2.35-.48.62-.83.81s-.78.3-1.28.3c-.55,0-1.01-.12-1.4-.36s-.67-.58-.86-1.01c-.09-.22-.16-.47-.19-.72h7.12c.05-.14.08-.3.1-.49s.02-.38.02-.58c0-.71-.12-1.36-.34-1.97-.22-.6-.55-1.13-.98-1.59-.43-.45-.95-.81-1.57-1.07s-1.34-.38-2.14-.38c-.97,0-1.84.23-2.6.69-.77.47-1.38,1.08-1.84,1.88-.45.79-.67,1.7-.67,2.72s.22,1.87.65,2.67v-.03ZM13.44,6.3c.35-.23.77-.35,1.24-.35s.92.12,1.26.36c.34.24.58.57.72.99.05.14.06.3.07.45h-4.17c.03-.14.05-.29.09-.41.17-.45.43-.8.78-1.05h.01Z"/>
    <path class="cls-1" d="M129.29,13.63c.83.47,1.74.69,2.74.69s1.92-.23,2.73-.69c.81-.47,1.48-1.09,1.97-1.88.49-.8.73-1.71.73-2.72s-.24-1.94-.73-2.73-1.14-1.42-1.97-1.88c-.81-.45-1.73-.69-2.73-.69s-1.92.23-2.74.69c-.83.47-1.48,1.08-1.98,1.88-.49.79-.73,1.71-.73,2.73s.24,1.93.73,2.72c.49.8,1.15,1.43,1.98,1.88ZM129.79,7.57c.22-.42.52-.74.91-.99.38-.24.83-.36,1.34-.36s.95.12,1.33.36c.38.24.67.57.9.99s.33.9.33,1.44-.1,1.03-.33,1.45-.51.76-.9.99-.83.35-1.33.35-.95-.12-1.34-.35c-.38-.23-.69-.56-.91-.99-.22-.42-.33-.91-.33-1.45s.1-1.02.33-1.44Z"/>
    <rect class="cls-1" x="55.74" y=".23" width="2.79" height="2.79"/>
    <path class="cls-1" d="M186.27,8.16c0-.4.08-.73.23-1.02.15-.29.37-.51.66-.67s.6-.24.97-.24.7.08.98.24c.28.16.5.38.65.67.15.28.23.63.23,1.02v5.93h2.79v-6.53c0-.77-.16-1.44-.49-2.02s-.77-1.02-1.35-1.35-1.24-.49-2.02-.49c-.71,0-1.33.14-1.85.44-.34.19-.59.47-.81.78V0h-2.79v14.08h2.79v-5.93h.01Z"/>
    <polygon class="cls-1" points="124.54 14.09 124.54 .23 121.66 .23 121.66 6.22 116.26 6.22 116.26 .23 113.38 .23 113.38 14.09 116.26 14.09 116.26 8.73 121.66 8.73 121.66 14.09 124.54 14.09"/>
    <path class="cls-1" d="M165.9,5.94c.5,0,.94.13,1.33.38.4.26.66.59.81,1.01l2.07-.97c-.31-.85-.84-1.5-1.59-1.97s-1.63-.7-2.62-.7c-.76,0-1.43.13-2.01.4s-1.03.64-1.36,1.1c-.33.47-.49,1.02-.49,1.65,0,.72.22,1.34.67,1.87.44.52,1.08.91,1.92,1.14l1.73.49c.22.06.41.14.56.22.15.09.26.19.34.29.07.1.12.23.12.38,0,.28-.1.51-.31.67-.21.16-.51.24-.91.24-.55,0-1.05-.15-1.49-.47s-.8-.74-1.06-1.28l-2.05.97c.3.9.86,1.6,1.69,2.13.83.52,1.79.79,2.91.79.79,0,1.48-.13,2.07-.4.58-.27,1.03-.64,1.37-1.1.33-.48.49-1.02.49-1.65,0-.73-.22-1.35-.67-1.85-.44-.5-1.09-.87-1.93-1.13l-1.62-.49c-.24-.07-.45-.15-.63-.24-.16-.08-.29-.19-.36-.3s-.12-.23-.12-.37c0-.26.1-.47.3-.62.21-.15.49-.22.85-.22h-.01Z"/>
    <path class="cls-1" d="M149.01,11.21l-2.42-1.06c-.17.51-.47.91-.87,1.21s-.9.44-1.45.44c-.49,0-.92-.12-1.29-.35-.38-.23-.67-.56-.9-.99-.22-.42-.33-.91-.33-1.45s.1-1.03.33-1.45.51-.76.9-.99.81-.35,1.29-.35c.55,0,1.02.15,1.44.44.42.3.71.7.88,1.21l2.42-1.05c-.2-.63-.52-1.19-.99-1.65-.45-.47-1.01-.83-1.65-1.09-.65-.26-1.35-.4-2.1-.4-1.02,0-1.93.23-2.76.69-.81.47-1.47,1.09-1.93,1.88-.48.8-.71,1.7-.71,2.71s.23,1.91.72,2.72c.48.8,1.13,1.44,1.93,1.91.81.47,1.72.7,2.74.7.77,0,1.48-.13,2.12-.4s1.2-.64,1.65-1.1c.45-.48.78-1,.97-1.6v.02Z"/>
    <path class="cls-1" d="M220.56,6.76c-.22-.6-.55-1.13-.98-1.59-.43-.45-.95-.81-1.57-1.07s-1.34-.38-2.14-.38c-.97,0-1.84.23-2.6.69-.77.47-1.38,1.08-1.84,1.88-.45.79-.67,1.7-.67,2.72s.22,1.87.65,2.67c.43.8,1.05,1.44,1.84,1.93.79.48,1.73.72,2.81.72.7,0,1.34-.1,1.92-.3.58-.21,1.09-.49,1.51-.86.43-.37.74-.8.94-1.3l-2.23-1.06c-.2.35-.48.62-.83.81s-.78.3-1.28.3c-.55,0-1.01-.12-1.4-.36s-.67-.58-.86-1.01c-.09-.22-.16-.47-.19-.72h7.12c.05-.14.08-.3.1-.49.02-.19.02-.38.02-.58,0-.71-.12-1.36-.34-1.97v-.03ZM214.62,6.3c.35-.23.77-.35,1.24-.35s.92.12,1.26.36c.34.24.58.57.72.99.05.14.06.3.07.45h-4.17c.03-.14.05-.29.09-.41.17-.45.43-.8.78-1.05h.01Z"/>
    <path class="cls-1" d="M175.62,6.58c.38-.23.81-.35,1.29-.35.55,0,1.02.15,1.44.44.42.3.71.7.88,1.21l2.42-1.05c-.2-.63-.52-1.19-.99-1.65-.47-.47-1.01-.83-1.65-1.09-.64-.26-1.35-.4-2.1-.4-1.02,0-1.93.23-2.76.69-.81.47-1.47,1.09-1.93,1.88-.48.8-.71,1.7-.71,2.71s.24,1.91.72,2.72c.48.8,1.12,1.44,1.93,1.91s1.72.7,2.74.7c.77,0,1.48-.13,2.12-.4s1.2-.64,1.65-1.1c.45-.48.78-1,.97-1.6l-2.42-1.06c-.17.51-.47.91-.87,1.21-.41.3-.9.44-1.45.44-.49,0-.92-.12-1.29-.35-.38-.23-.67-.56-.9-.99-.22-.42-.33-.91-.33-1.45s.1-1.03.33-1.45.51-.76.9-.99v.02Z"/>
    <path class="cls-1" d="M72.78,13.62c.81.47,1.72.7,2.74.7.77,0,1.48-.13,2.12-.4s1.2-.64,1.65-1.1c.45-.48.78-1,.97-1.6l-2.42-1.06c-.17.51-.47.91-.87,1.21s-.9.44-1.45.44c-.49,0-.92-.12-1.29-.35-.38-.23-.67-.56-.9-.99-.22-.42-.33-.91-.33-1.45s.1-1.03.33-1.45.51-.76.9-.99c.38-.23.81-.35,1.29-.35.55,0,1.02.15,1.44.44.42.3.71.7.88,1.21l2.42-1.05c-.2-.63-.52-1.19-.99-1.65-.45-.47-1.01-.83-1.65-1.09-.65-.26-1.35-.4-2.1-.4-1.02,0-1.93.23-2.76.69-.81.47-1.47,1.09-1.93,1.88-.48.8-.71,1.7-.71,2.71s.23,1.91.72,2.72c.48.8,1.13,1.44,1.93,1.91v.02Z"/>
    <path class="cls-1" d="M64.51,5.94c.5,0,.94.13,1.33.38.4.26.66.59.81,1.01l2.07-.97c-.31-.85-.84-1.5-1.59-1.97s-1.62-.7-2.62-.7c-.76,0-1.43.13-2.01.4s-1.03.64-1.36,1.1c-.33.47-.49,1.02-.49,1.65,0,.72.22,1.34.67,1.87.44.52,1.08.91,1.92,1.14l1.73.49c.22.06.41.14.56.22.15.09.26.19.34.29.07.1.12.23.12.38,0,.28-.1.51-.31.67s-.51.24-.91.24c-.55,0-1.05-.15-1.49-.47s-.8-.74-1.06-1.28l-2.05.97c.3.9.86,1.6,1.69,2.13s1.79.79,2.91.79c.79,0,1.48-.13,2.07-.4.58-.27,1.03-.64,1.37-1.1.33-.48.49-1.02.49-1.65,0-.73-.22-1.35-.67-1.85-.44-.5-1.09-.87-1.93-1.13l-1.62-.49c-.24-.07-.45-.15-.63-.24-.16-.08-.29-.19-.36-.3s-.12-.23-.12-.37c0-.26.1-.47.3-.62.21-.15.49-.22.85-.22h-.01Z"/>
    <path class="cls-1" d="M42.38,14.09v-6.53c0-.77-.16-1.44-.49-2.02s-.77-1.02-1.35-1.35-1.26-.49-2.02-.49c-.71,0-1.33.14-1.85.44-.34.19-.59.47-.81.78V0h-2.79v14.08h2.79v-5.93c0-.4.08-.73.23-1.02s.37-.51.66-.67c.28-.16.6-.24.97-.24s.7.08.98.24.5.38.65.67c.15.28.23.63.23,1.02v5.93h2.8Z"/>
    <polygon class="cls-1" points="3.52 14.09 6.41 14.09 6.41 2.74 9.86 2.74 9.86 .23 0 .23 0 2.74 3.52 2.74 3.52 14.09"/>
    <path class="cls-1" d="M89.55,4.2c-.58-.33-1.24-.49-2.02-.49-.71,0-1.33.14-1.85.44-.34.19-.59.47-.81.78V.01h-2.79v14.08h2.79v-5.93c0-.4.08-.73.23-1.02s.37-.51.66-.67.6-.24.97-.24.7.08.98.24.5.38.65.67c.15.28.23.63.23,1.02v5.93h2.79v-6.53c0-.77-.16-1.44-.49-2.02s-.77-1.02-1.35-1.35h.01Z"/>
    <path class="cls-1" d="M100.23,14.01c.58-.21,1.09-.49,1.51-.86s.74-.8.94-1.3l-2.23-1.06c-.2.35-.48.62-.83.81-.35.2-.78.3-1.28.3-.55,0-1.01-.12-1.4-.36-.38-.24-.67-.58-.86-1.01-.09-.22-.16-.47-.19-.72h7.12c.05-.14.08-.3.1-.49s.02-.38.02-.58c0-.71-.12-1.36-.34-1.97s-.55-1.13-.98-1.59c-.43-.45-.95-.81-1.57-1.07s-1.34-.38-2.14-.38c-.97,0-1.84.23-2.6.69-.77.47-1.38,1.08-1.84,1.88-.45.79-.67,1.7-.67,2.72s.22,1.87.65,2.67c.43.8,1.05,1.44,1.84,1.93.79.48,1.73.72,2.81.72.7,0,1.34-.1,1.92-.3v-.03ZM96.88,6.3c.35-.23.77-.35,1.24-.35s.92.12,1.26.36.58.57.72.99c.05.14.06.3.07.45h-4.17c.03-.14.05-.29.09-.41.17-.45.43-.8.78-1.05h.01Z"/>
  </g>
</svg>